<svg width="24" height="24" viewBox="0 0 24 24" fill="none" xmlns="http://www.w3.org/2000/svg">
<g clip-path="url(#clip0_227:609)">
<path d="M22.6754 24.0001C23.4068 24.0001 24 23.407 24 22.6755V1.32459C24 0.592969 23.4068 0 22.6754 0H1.32459C0.592875 0 0 0.592969 0 1.32459V22.6755C0 23.407 0.592875 24.0001 1.32459 24.0001H22.6754Z" fill="#395185"/>
<path d="M16.5594 24.0002V14.7062H19.6792L20.1462 11.0841H16.5594V8.7715C16.5594 7.72281 16.8507 7.00816 18.3546 7.00816L20.2726 7.00731V3.76778C19.9407 3.72362 18.8022 3.625 17.4777 3.625C14.7123 3.625 12.8191 5.31297 12.8191 8.41291V11.0841H9.69141V14.7062H12.8191V24.0002H16.5594Z" fill="white"/>
</g>
<defs>
<clipPath id="clip0_227:609">
<rect width="24" height="24" fill="white"/>
</clipPath>
</defs>
</svg>
