<svg width="24" height="24" viewBox="0 0 24 24" fill="none" xmlns="http://www.w3.org/2000/svg">
<g clip-path="url(#clip0_227:612)">
<path d="M24 4.30887C23.1169 4.70047 22.1679 4.96513 21.1719 5.08419C22.1887 4.47481 22.9693 3.50984 23.3369 2.36009C22.3704 2.93364 21.3129 3.33774 20.2103 3.55494C19.312 2.59803 18.0324 2 16.6162 2C13.8968 2 11.6921 4.20462 11.6921 6.92375C11.6921 7.30972 11.7357 7.68547 11.8196 8.04594C7.72744 7.84053 4.09931 5.88031 1.67072 2.90131C1.24697 3.62853 1.00416 4.47444 1.00416 5.37669C1.00416 7.085 1.8735 8.59203 3.19462 9.47506C2.4127 9.45057 1.64798 9.23938 0.964313 8.85912C0.964031 8.87975 0.964031 8.90037 0.964031 8.92109C0.964031 11.3067 2.66128 13.2969 4.91372 13.7492C4.18864 13.9464 3.42809 13.9753 2.69016 13.8336C3.31669 15.7898 5.13516 17.2133 7.28972 17.2531C5.60456 18.5737 3.48141 19.3609 1.17459 19.3609C0.777094 19.3609 0.385219 19.3376 0 19.2921C2.17903 20.6892 4.76719 21.5043 7.54781 21.5043C16.6047 21.5043 21.5573 14.0014 21.5573 7.49478C21.5573 7.28122 21.5526 7.06887 21.543 6.85775C22.507 6.16089 23.339 5.29776 24 4.30887Z" fill="#55ACEE"/>
</g>
<defs>
<clipPath id="clip0_227:612">
<rect width="24" height="24" fill="white"/>
</clipPath>
</defs>
</svg>
