<svg width="51" height="51" viewBox="0 0 51 51" fill="none" xmlns="http://www.w3.org/2000/svg">
<g clip-path="url(#clip0_1:182)">
<path d="M29.9468 43.9759C29.9468 47.2728 27.2741 49.9454 23.9772 49.9454H8.05842C4.76153 49.9454 2.08887 47.2728 2.08887 43.9759V6.96467C2.08887 3.66778 4.76153 0.995117 8.05842 0.995117H23.9772C27.2741 0.995117 29.9468 3.66778 29.9468 6.96467V43.9759Z" fill="#EFEFEF"/>
<path d="M21.9881 5.6377C24.186 5.6377 25.9678 7.41951 25.9678 9.6174C25.9678 11.8153 24.186 13.5971 21.9881 13.5971H10.049C7.85115 13.5971 6.06934 11.8153 6.06934 9.6174C6.06934 7.41951 7.85115 5.6377 10.049 5.6377H21.9881Z" fill="#51CEEF"/>
<path d="M36.1071 12.177L34.1543 3.08398L38.326 6.76521L42.3566 3.76242L41.6781 9.1199L48.8508 7.16318L40.5428 13.9762L36.1071 12.177Z" fill="#3BBF9A"/>
<path d="M29.1158 45.9511C33.8631 37.0251 39.3179 27.9304 41.618 18.1382C41.6809 18.153 42.2366 14.1866 38.2151 12.9191C34.1585 11.6382 33.2459 11.9329 31.5117 15.0859C31.099 15.8798 30.4318 18.1006 30.1073 21.1468C29.7453 24.1788 29.726 28.0362 29.7388 31.7767C29.7529 35.5183 29.7999 39.1432 29.605 41.7366C29.4508 44.3465 29.0544 45.925 29.1158 45.9511Z" fill="#EF4B30"/>
<path d="M21.9879 4.64258H10.0488C7.30584 4.64258 5.07422 6.8742 5.07422 9.61721C5.07422 12.3602 7.30584 14.5918 10.0488 14.5918H21.9879C24.731 14.5918 26.9626 12.3602 26.9626 9.61721C26.9626 6.8742 24.731 4.64258 21.9879 4.64258ZM21.9879 12.602H10.0488C8.40304 12.602 7.06407 11.263 7.06407 9.61721C7.06407 7.9714 8.40304 6.63243 10.0488 6.63243H21.9879C23.6338 6.63243 24.9727 7.9714 24.9727 9.61721C24.9727 11.263 23.6338 12.602 21.9879 12.602Z" fill="black"/>
<path d="M10.0486 8.125C9.49924 8.125 9.05371 8.57053 9.05371 9.11993V10.1149C9.05371 10.6642 9.49924 11.1098 10.0486 11.1098C10.598 11.1098 11.0436 10.6642 11.0436 10.1149V9.11993C11.0436 8.57053 10.598 8.125 10.0486 8.125Z" fill="black"/>
<path d="M14.0281 8.125C13.4787 8.125 13.0332 8.57053 13.0332 9.11993V10.1149C13.0332 10.6642 13.4787 11.1098 14.0281 11.1098C14.5775 11.1098 15.0231 10.6642 15.0231 10.1149V9.11993C15.0231 8.57053 14.5775 8.125 14.0281 8.125Z" fill="black"/>
<path d="M18.0086 8.125C17.4592 8.125 17.0137 8.57053 17.0137 9.11993V10.1149C17.0137 10.6642 17.4592 11.1098 18.0086 11.1098C18.558 11.1098 19.0035 10.6642 19.0035 10.1149V9.11993C19.0035 8.57053 18.558 8.125 18.0086 8.125Z" fill="black"/>
<path d="M21.9881 8.125C21.4387 8.125 20.9932 8.57053 20.9932 9.11993V10.1149C20.9932 10.6642 21.4387 11.1098 21.9881 11.1098C22.5375 11.1098 22.983 10.6642 22.983 10.1149V9.11993C22.983 8.57053 22.5375 8.125 21.9881 8.125Z" fill="black"/>
<path d="M10.0488 16.582H6.06914C5.51975 16.582 5.07422 17.0276 5.07422 17.577V21.5567C5.07422 22.1061 5.51975 22.5516 6.06914 22.5516H10.0488C10.5982 22.5516 11.0438 22.1061 11.0438 21.5567V17.577C11.0438 17.0276 10.5982 16.582 10.0488 16.582ZM9.05392 20.5617H7.06407V18.5719H9.05392V20.5617Z" fill="black"/>
<path d="M14.0281 22.5516H18.0078C18.5572 22.5516 19.0028 22.1061 19.0028 21.5567V17.577C19.0028 17.0276 18.5572 16.582 18.0078 16.582H14.0281C13.4787 16.582 13.0332 17.0276 13.0332 17.577V21.5567C13.0332 22.1061 13.4786 22.5516 14.0281 22.5516ZM15.0231 18.5719H17.0129V20.5617H15.0231V18.5719Z" fill="black"/>
<path d="M25.9678 16.582H21.9881C21.4387 16.582 20.9932 17.0276 20.9932 17.577V21.5567C20.9932 22.1061 21.4387 22.5516 21.9881 22.5516H25.9678C26.5172 22.5516 26.9627 22.1061 26.9627 21.5567V17.577C26.9627 17.0276 26.5172 16.582 25.9678 16.582ZM24.9729 20.5617H22.983V18.5719H24.9729V20.5617Z" fill="black"/>
<path d="M10.0488 24.542H6.06914C5.51975 24.542 5.07422 24.9875 5.07422 25.5369V29.5166C5.07422 30.066 5.51975 30.5115 6.06914 30.5115H10.0488C10.5982 30.5115 11.0438 30.066 11.0438 29.5166V25.5369C11.0438 24.9875 10.5982 24.542 10.0488 24.542ZM9.05392 28.5217H7.06407V26.5318H9.05392V28.5217Z" fill="black"/>
<path d="M13.0332 29.5166C13.0332 30.066 13.4787 30.5115 14.0281 30.5115H18.0078C18.5572 30.5115 19.0028 30.066 19.0028 29.5166V25.5369C19.0028 24.9875 18.5572 24.542 18.0078 24.542H14.0281C13.4787 24.542 13.0332 24.9875 13.0332 25.5369V29.5166ZM15.0231 26.5318H17.0129V28.5217H15.0231V26.5318Z" fill="black"/>
<path d="M25.9678 24.542H21.9881C21.4387 24.542 20.9932 24.9875 20.9932 25.5369V29.5166C20.9932 30.066 21.4387 30.5115 21.9881 30.5115H25.9678C26.5172 30.5115 26.9627 30.066 26.9627 29.5166V25.5369C26.9627 24.9875 26.5172 24.542 25.9678 24.542ZM24.9729 28.5217H22.983V26.5318H24.9729V28.5217Z" fill="black"/>
<path d="M10.0488 32.501H6.06914C5.51975 32.501 5.07422 32.9465 5.07422 33.4959V37.4756C5.07422 38.025 5.51975 38.4705 6.06914 38.4705H10.0488C10.5982 38.4705 11.0438 38.025 11.0438 37.4756V33.4959C11.0438 32.9465 10.5982 32.501 10.0488 32.501ZM9.05392 36.4807H7.06407V34.4908H9.05392V36.4807Z" fill="black"/>
<path d="M13.0332 37.4756C13.0332 38.025 13.4787 38.4705 14.0281 38.4705H18.0078C18.5572 38.4705 19.0028 38.025 19.0028 37.4756V33.4959C19.0028 32.9465 18.5572 32.501 18.0078 32.501H14.0281C13.4787 32.501 13.0332 32.9465 13.0332 33.4959V37.4756ZM15.0231 34.4908H17.0129V36.4807H15.0231V34.4908Z" fill="black"/>
<path d="M25.9678 32.501H21.9881C21.4387 32.501 20.9932 32.9465 20.9932 33.4959V37.4756C20.9932 38.025 21.4387 38.4705 21.9881 38.4705H25.9678C26.5172 38.4705 26.9627 38.025 26.9627 37.4756V33.4959C26.9627 32.9465 26.5172 32.501 25.9678 32.501ZM24.9729 36.4807H22.983V34.4908H24.9729V36.4807Z" fill="black"/>
<path d="M10.0488 40.46H6.06914C5.51975 40.46 5.07422 40.9055 5.07422 41.4549V45.4346C5.07422 45.984 5.51975 46.4295 6.06914 46.4295H10.0488C10.5982 46.4295 11.0438 45.984 11.0438 45.4346V41.4549C11.0438 40.9055 10.5982 40.46 10.0488 40.46ZM9.05392 44.4397H7.06407V42.4498H9.05392V44.4397Z" fill="black"/>
<path d="M25.9672 40.46H14.0281C13.4787 40.46 13.0332 40.9055 13.0332 41.4549V45.4346C13.0332 45.984 13.4787 46.4295 14.0281 46.4295H25.9672C26.5166 46.4295 26.9622 45.984 26.9622 45.4346V41.4549C26.9622 40.9055 26.5166 40.46 25.9672 40.46ZM24.9723 44.4397H15.0231V42.4498H24.9723V44.4397Z" fill="black"/>
<path d="M49.7352 6.70699C49.5199 6.29002 49.0422 6.08029 48.5893 6.20356L42.8524 7.76848L43.3439 3.88767C43.3941 3.49179 43.2028 3.10437 42.8583 2.90329C42.5137 2.70222 42.0825 2.72639 41.7624 2.96468L38.3792 5.48512L34.8127 2.33807C34.4906 2.05372 34.0225 2.00846 33.6518 2.22545C33.2811 2.44254 33.0915 2.87295 33.1817 3.2929L34.8827 11.2134C32.8974 11.2228 31.8707 12.4686 30.9423 14.0692V6.96448C30.9423 3.12426 27.818 0 23.9778 0H8.0592C4.21899 0 1.09473 3.12426 1.09473 6.96448V43.9757C1.09473 47.8159 4.21899 50.9402 8.0592 50.9402H23.978C27.565 50.9402 30.5266 48.214 30.9016 44.7249C31.3154 43.9568 31.7312 43.1892 32.1393 42.4363C36.2893 34.7811 40.5805 26.8648 42.5748 18.4162C42.598 18.3447 42.6169 18.2661 42.6303 18.1798C42.6522 18.0375 42.8274 16.7482 42.2494 15.2918C42.1251 14.9787 41.9566 14.6369 41.7282 14.2913L49.482 7.93274C49.845 7.63506 49.9505 7.12416 49.7352 6.70699ZM28.9526 43.9757C28.9526 46.7187 26.721 48.9503 23.978 48.9503H8.0592C5.31619 48.9503 3.08458 46.7187 3.08458 43.9757V6.96448C3.08458 4.22147 5.31619 1.98985 8.0592 1.98985H23.978C26.721 1.98985 28.9526 4.22147 28.9526 6.96448V43.9757ZM40.0057 20.3526L38.3738 19.8358C38.2763 19.8049 38.1748 19.789 38.0732 19.789C37.6374 19.789 37.2564 20.0686 37.1251 20.4844C37.0445 20.7371 37.0684 21.0068 37.1907 21.2425C37.3131 21.4783 37.5201 21.6525 37.7737 21.733L39.4157 22.2524C38.5866 24.7579 37.5765 27.2275 36.4598 29.6657L34.1383 28.9307C33.6141 28.7653 33.0553 29.0552 32.8895 29.5791C32.7236 30.103 33.0138 30.6621 33.5376 30.8279L35.6067 31.4829C34.1438 34.5235 32.5408 37.5159 30.9423 40.4684V34.1807L31.3171 34.2993C31.417 34.3308 31.5181 34.3459 31.6176 34.3459C32.0399 34.3459 32.4317 34.0749 32.5659 33.651C32.7317 33.127 32.4414 32.568 31.9175 32.4021L30.9425 32.0934V23.7449L35.2797 25.1178C35.3796 25.1493 35.4807 25.1644 35.5802 25.1644C36.0025 25.1644 36.3943 24.8934 36.5285 24.4695C36.6942 23.9457 36.404 23.3865 35.8801 23.2207L31.0476 21.691C31.0629 21.5472 31.0786 21.4048 31.0953 21.2648C31.0958 21.2607 31.0963 21.2565 31.0967 21.2523C31.3751 18.6394 31.918 16.6756 32.271 15.8167L34.2321 16.4375C34.332 16.469 34.4332 16.4841 34.5327 16.4841C34.9549 16.4841 35.3467 16.2131 35.4809 15.7892C35.6467 15.2653 35.3565 14.7062 34.8325 14.5403L33.3262 14.0635C33.8733 13.3626 34.3035 13.2031 34.9052 13.2031C35.5393 13.2031 36.4396 13.4019 37.9162 13.8682C39.5528 14.384 40.2311 15.4373 40.5049 16.336L38.6268 15.7414C38.1033 15.576 37.5439 15.8659 37.378 16.3898C37.2122 16.9136 37.5024 17.4728 38.0264 17.6386L40.4925 18.4193C40.5029 18.4226 40.5134 18.425 40.5238 18.4279C40.3645 19.0718 40.1914 19.7133 40.0057 20.3526ZM40.337 12.8589C39.8443 12.5093 39.245 12.2007 38.5148 11.9705C37.9673 11.7976 37.4596 11.6469 36.9853 11.5263L35.7618 5.82947L37.6682 7.51159C38.0209 7.8229 38.5436 7.84439 38.9209 7.56342L41.0761 5.95771L40.6915 8.99512C40.6498 9.32474 40.7752 9.65336 41.0261 9.87135C41.2768 10.089 41.6196 10.1672 41.9403 10.0801L44.6155 9.35031L40.337 12.8589Z" fill="black"/>
<path d="M34.5796 18.6347C34.4811 18.6038 34.3806 18.5879 34.2781 18.5879C33.8434 18.5879 33.4623 18.8675 33.3309 19.2822C33.1647 19.8056 33.4563 20.3658 33.9787 20.5309C34.0761 20.5627 34.1777 20.5777 34.2791 20.5777C34.7149 20.5777 35.096 20.2992 35.2273 19.8833C35.3079 19.6296 35.285 19.36 35.1626 19.1242C35.0393 18.8884 34.8323 18.7142 34.5796 18.6347Z" fill="black"/>
</g>
<defs>
<clipPath id="clip0_1:182">
<rect width="50.9402" height="50.9402" fill="white"/>
</clipPath>
</defs>
</svg>
