<svg width="100" height="63" viewBox="0 0 100 63" fill="none" xmlns="http://www.w3.org/2000/svg">
<path d="M7.66 51.99C8.18 52.07 8.68 52.19 9.16 52.35C9.66 52.49 10.1 52.66 10.48 52.86L10.27 54H0.28L0.49 52.86C1.37 52.44 2.26 52.15 3.16 51.99L6.76 35.01C6.32 34.93 5.91 34.82 5.53 34.68C5.15 34.52 4.8 34.34 4.48 34.14L4.72 33H8.5C9.3 33 10.22 32.96 11.26 32.88C12.32 32.8 13.28 32.76 14.14 32.76C15.18 32.76 16.14 32.85 17.02 33.03C17.92 33.21 18.68 33.5 19.3 33.9C19.94 34.28 20.44 34.79 20.8 35.43C21.16 36.07 21.34 36.85 21.34 37.77C21.34 38.95 21.12 40.05 20.68 41.07C20.24 42.07 19.6 42.94 18.76 43.68C17.92 44.42 16.89 45.01 15.67 45.45C14.45 45.87 13.07 46.08 11.53 46.08C11.43 46.08 11.26 46.08 11.02 46.08C10.8 46.08 10.55 46.08 10.27 46.08C10.01 46.06 9.75 46.05 9.49 46.05C9.25 46.03 9.06 46.01 8.92 45.99L7.66 51.99ZM13.03 34.71C12.63 34.71 12.29 34.73 12.01 34.77C11.75 34.81 11.51 34.85 11.29 34.89L9.34 44.01C9.52 44.05 9.79 44.08 10.15 44.1C10.51 44.12 10.8 44.13 11.02 44.13C11.88 44.13 12.64 43.98 13.3 43.68C13.96 43.36 14.51 42.92 14.95 42.36C15.41 41.78 15.76 41.11 16 40.35C16.24 39.57 16.36 38.71 16.36 37.77C16.36 37.31 16.3 36.89 16.18 36.51C16.08 36.13 15.9 35.81 15.64 35.55C15.4 35.27 15.06 35.06 14.62 34.92C14.2 34.78 13.67 34.71 13.03 34.71ZM26.0242 51.96C26.4042 51.96 26.7942 51.79 27.1942 51.45C27.6142 51.11 28.0042 50.69 28.3642 50.19C28.7442 49.67 29.0842 49.11 29.3842 48.51C29.7042 47.89 29.9742 47.32 30.1942 46.8L31.3042 40.86C31.0642 40.7 30.8342 40.59 30.6142 40.53C30.4142 40.45 30.1442 40.41 29.8042 40.41C29.0042 40.41 28.2842 40.68 27.6442 41.22C27.0042 41.74 26.4642 42.43 26.0242 43.29C25.5842 44.13 25.2442 45.08 25.0042 46.14C24.7842 47.2 24.6742 48.26 24.6742 49.32C24.6742 50.24 24.7842 50.91 25.0042 51.33C25.2242 51.75 25.5642 51.96 26.0242 51.96ZM29.7442 49.23C29.4842 49.87 29.1542 50.5 28.7542 51.12C28.3742 51.72 27.9342 52.26 27.4342 52.74C26.9342 53.22 26.3842 53.61 25.7842 53.91C25.1842 54.21 24.5342 54.36 23.8342 54.36C22.7942 54.36 21.9642 53.98 21.3442 53.22C20.7242 52.46 20.4142 51.33 20.4142 49.83C20.4142 48.27 20.6242 46.82 21.0442 45.48C21.4842 44.12 22.0942 42.94 22.8742 41.94C23.6742 40.92 24.6342 40.13 25.7542 39.57C26.8742 38.99 28.1242 38.7 29.5042 38.7C30.0242 38.7 30.4642 38.76 30.8242 38.88C31.2042 39 31.6042 39.15 32.0242 39.33C32.5442 39.13 33.1042 38.98 33.7042 38.88C34.3042 38.78 35.0242 38.73 35.8642 38.73L33.3442 51.93H35.4442V52.95C35.2442 53.11 34.9742 53.27 34.6342 53.43C34.3142 53.59 33.9542 53.73 33.5542 53.85C33.1742 53.97 32.7742 54.07 32.3542 54.15C31.9542 54.23 31.5742 54.27 31.2142 54.27C30.5142 54.27 30.0142 54.12 29.7142 53.82C29.4142 53.52 29.2642 53.21 29.2642 52.89C29.2642 52.53 29.3142 52.06 29.4142 51.48C29.5142 50.88 29.6642 50.13 29.8642 49.23H29.7442ZM41.0685 33.93L39.0285 33.54V32.52C39.3085 32.4 39.6885 32.28 40.1685 32.16C40.6485 32.04 41.1685 31.93 41.7285 31.83C42.2885 31.71 42.8585 31.62 43.4385 31.56C44.0385 31.48 44.5885 31.44 45.0885 31.44L45.6885 31.77L41.7585 51.93H43.8885V52.95C43.6885 53.11 43.4185 53.27 43.0785 53.43C42.7385 53.59 42.3585 53.73 41.9385 53.85C41.5385 53.97 41.1185 54.07 40.6785 54.15C40.2385 54.23 39.8185 54.27 39.4185 54.27C38.7385 54.27 38.2385 54.13 37.9185 53.85C37.6185 53.55 37.4685 53.23 37.4685 52.89C37.4685 52.49 37.4985 52.1 37.5585 51.72C37.6185 51.34 37.6985 50.92 37.7985 50.46L41.0685 33.93ZM64.7934 45C64.8934 44.54 65.0034 44.05 65.1234 43.53C65.2434 42.99 65.3034 42.57 65.3034 42.27C65.3034 41.89 65.2334 41.59 65.0934 41.37C64.9734 41.15 64.7434 41.04 64.4034 41.04C64.0634 41.04 63.7134 41.17 63.3534 41.43C62.9934 41.67 62.6434 42 62.3034 42.42C61.9634 42.82 61.6334 43.28 61.3134 43.8C61.0134 44.32 60.7434 44.85 60.5034 45.39L58.5534 54H54.5334L56.3634 45.57C56.5034 44.95 56.6234 44.35 56.7234 43.77C56.8234 43.19 56.8734 42.65 56.8734 42.15C56.8734 41.41 56.5934 41.04 56.0334 41.04C55.7534 41.04 55.4334 41.17 55.0734 41.43C54.7134 41.69 54.3534 42.03 53.9934 42.45C53.6334 42.85 53.2934 43.31 52.9734 43.83C52.6534 44.35 52.4034 44.88 52.2234 45.42L50.4834 54H46.2834L48.9534 41.13L47.2434 40.74V39.72C47.5634 39.56 47.9534 39.41 48.4134 39.27C48.8934 39.13 49.3934 39.02 49.9134 38.94C50.4334 38.84 50.9634 38.77 51.5034 38.73C52.0434 38.67 52.5434 38.64 53.0034 38.64L53.6334 39L52.4634 43.38H52.5834C52.8834 42.84 53.2434 42.29 53.6634 41.73C54.1034 41.15 54.5934 40.64 55.1334 40.2C55.6734 39.74 56.2534 39.37 56.8734 39.09C57.4934 38.79 58.1234 38.64 58.7634 38.64C59.0034 38.64 59.2534 38.68 59.5134 38.76C59.7734 38.84 60.0134 38.99 60.2334 39.21C60.4734 39.41 60.6634 39.69 60.8034 40.05C60.9434 40.41 61.0134 40.87 61.0134 41.43C61.0134 41.71 60.9834 42.03 60.9234 42.39C60.8834 42.75 60.8234 43.08 60.7434 43.38C61.0834 42.76 61.4834 42.16 61.9434 41.58C62.4034 41 62.8934 40.5 63.4134 40.08C63.9534 39.64 64.5134 39.29 65.0934 39.03C65.6934 38.77 66.3134 38.64 66.9534 38.64C67.7134 38.64 68.3334 38.88 68.8134 39.36C69.2934 39.84 69.5334 40.5 69.5334 41.34C69.5334 41.98 69.4734 42.59 69.3534 43.17C69.2334 43.75 69.1034 44.36 68.9634 45L67.2534 51.93H69.3534V52.95C69.1534 53.11 68.8734 53.27 68.5134 53.43C68.1734 53.59 67.8034 53.73 67.4034 53.85C67.0034 53.97 66.5934 54.07 66.1734 54.15C65.7534 54.23 65.3634 54.27 65.0034 54.27C64.2834 54.27 63.7834 54.13 63.5034 53.85C63.2234 53.55 63.0834 53.22 63.0834 52.86C63.0834 52.28 63.2234 51.48 63.5034 50.46L64.7934 45ZM80.6523 39C81.0323 39 81.4923 39 82.0323 39C82.5923 38.98 83.1623 38.96 83.7423 38.94C84.3423 38.9 84.9123 38.86 85.4523 38.82C86.0123 38.76 86.4723 38.7 86.8323 38.64L87.3723 39L84.8823 51.93H86.9823V52.95C86.7223 53.13 86.4223 53.3 86.0823 53.46C85.7423 53.62 85.3723 53.76 84.9723 53.88C84.5923 54 84.2023 54.09 83.8023 54.15C83.4023 54.23 83.0223 54.27 82.6623 54.27C81.9023 54.27 81.3723 54.13 81.0723 53.85C80.7723 53.55 80.6223 53.23 80.6223 52.89C80.6223 52.49 80.6523 52.1 80.7123 51.72C80.7723 51.34 80.8523 50.92 80.9523 50.46L82.8123 41.04L78.3123 40.89L76.4523 52.71C76.2523 54.13 75.8423 55.31 75.2223 56.25C74.6023 57.19 73.9123 57.94 73.1523 58.5C72.4123 59.08 71.6623 59.51 70.9023 59.79C70.1423 60.07 69.5223 60.26 69.0423 60.36L68.7123 59.34C68.9523 59.22 69.2523 59.02 69.6123 58.74C69.9723 58.48 70.3323 58.11 70.6923 57.63C71.0523 57.15 71.3823 56.55 71.6823 55.83C72.0023 55.13 72.2423 54.28 72.4023 53.28L74.2923 40.89H72.1623V39.72C72.5623 39.5 72.9823 39.31 73.4223 39.15C73.8823 38.97 74.3123 38.83 74.7123 38.73L74.9223 37.68C75.1823 36.44 75.5523 35.42 76.0323 34.62C76.5123 33.8 77.0823 33.16 77.7423 32.7C78.4223 32.22 79.1823 31.89 80.0223 31.71C80.8823 31.53 81.8123 31.44 82.8123 31.44C83.9123 31.44 84.9323 31.59 85.8723 31.89C86.8123 32.17 87.5223 32.48 88.0023 32.82C87.9823 33.1 87.9123 33.42 87.7923 33.78C87.6723 34.12 87.4923 34.45 87.2523 34.77C87.0323 35.09 86.7623 35.38 86.4423 35.64C86.1223 35.88 85.7523 36.06 85.3323 36.18L82.7823 33.03C82.4423 33.05 82.0823 33.12 81.7023 33.24C81.3423 33.36 80.9923 33.58 80.6523 33.9C80.3123 34.22 79.9923 34.67 79.6923 35.25C79.3923 35.81 79.1523 36.56 78.9723 37.5L78.7023 39H80.6523ZM89.5961 39.72C89.9761 39.48 90.3961 39.28 90.8561 39.12C91.3161 38.94 91.7661 38.8 92.2061 38.7L92.6861 36.42C92.8261 36.3 93.0461 36.19 93.3461 36.09C93.6461 35.97 93.9761 35.87 94.3361 35.79C94.6961 35.69 95.0561 35.6 95.4161 35.52C95.7961 35.44 96.1361 35.38 96.4361 35.34L97.0661 35.7L96.3461 39H99.8561C99.8961 39.24 99.8761 39.56 99.7961 39.96C99.7361 40.34 99.6261 40.65 99.4661 40.89H95.9561L94.2161 48.66C94.1361 49.04 94.0761 49.38 94.0361 49.68C93.9961 49.96 93.9761 50.22 93.9761 50.46C93.9761 50.98 94.1061 51.36 94.3661 51.6C94.6261 51.84 94.9761 51.96 95.4161 51.96C95.9161 51.96 96.3861 51.9 96.8261 51.78C97.2661 51.66 97.6861 51.49 98.0861 51.27L98.4761 52.05C98.2361 52.31 97.9161 52.58 97.5161 52.86C97.1161 53.12 96.6661 53.37 96.1661 53.61C95.6661 53.83 95.1261 54.01 94.5461 54.15C93.9661 54.29 93.3761 54.36 92.7761 54.36C91.7361 54.36 90.9561 54.12 90.4361 53.64C89.9161 53.16 89.6561 52.5 89.6561 51.66C89.6561 51.2 89.6961 50.71 89.7761 50.19C89.8561 49.67 89.9361 49.23 90.0161 48.87L91.7561 40.89H89.5961V39.72Z" fill="#1A8D8D"/>
<path d="M41 0C32.7158 0 26 6.71581 26 15C25.9997 17.9604 26.8753 20.8548 28.5165 23.3187C30.1577 25.7825 32.4911 27.7058 35.223 28.8463C36.8632 31.1103 38.8569 32.3713 38.8569 32.3713C38.8569 32.3713 32.9904 25.9514 35.0161 19.9241C35.5324 18.3856 36.4827 17.1502 37.3569 15.8108C38.1698 14.5647 38.3846 13.0276 38.4828 11.5432C38.5838 10.0246 38.5312 8.34676 37.5268 7.20446C38.8128 8.13836 39.4665 9.75934 39.5618 11.3462C39.6571 12.933 39.2609 14.5064 38.8007 16.0278C41.6515 14.8527 45.0236 15.0235 47.7407 16.4794C46.7449 16.0939 41.4723 15.1885 39.0262 18.6772C37.6778 20.5979 36.9243 22.8729 36.8597 25.2188C36.8341 26.3924 37.0226 27.5105 37.3384 28.5966C37.4394 28.9444 37.5517 29.2894 37.6783 29.6315C38.7683 29.8781 39.8824 30.0024 41 30.0021C49.2841 30.0021 56 23.2863 56 15.0021C56 6.71795 49.2841 0 41 0ZM51.94 8.21091C51.94 8.21091 51.4087 9.43429 50.632 9.80486C50.1384 10.041 49.7479 10.0517 49.4755 9.91582L50.8269 8.74151L49.0629 9.05305C49.1298 8.75645 49.383 8.45985 49.8766 8.22442C50.6548 7.85314 51.9393 8.21091 51.94 8.21091ZM47.2065 11.4436C47.4619 11.0531 47.9889 10.7644 48.8218 10.6925C50.1377 10.5794 51.7892 11.7858 51.7892 11.7858C51.7892 11.7858 50.3667 13.2559 49.0516 13.369C48.2158 13.4402 47.6504 13.2453 47.3324 12.9046L49.9072 11.9472L47.2065 11.4436ZM40.5099 5.88078C40.8186 4.66807 42.4126 3.56489 42.4126 3.56489C42.4126 3.56489 43.286 5.29541 42.9773 6.50812C42.7817 7.27843 42.4303 7.72439 42.0263 7.90292L41.9716 5.29967L40.6792 7.56009C40.4096 7.21015 40.3143 6.65464 40.5099 5.88078ZM36.8206 11.5432C35.8205 11.7907 34.4022 11.0624 34.4022 11.0624C34.4022 11.0624 35.3191 9.7565 36.3191 9.50897C36.9543 9.35178 37.4138 9.43358 37.7004 9.65763L35.8312 10.7089L37.9735 10.7679C37.8249 11.1001 37.4557 11.386 36.8206 11.5432ZM38.7716 7.63904L36.8099 6.63117L37.9735 8.50395C37.6044 8.56441 37.1492 8.41006 36.6541 7.95343C35.8717 7.23504 35.6953 5.60623 35.6953 5.60623C35.6953 5.60623 37.3362 5.65318 38.1136 6.37156C38.6108 6.82464 38.8014 7.26563 38.7716 7.63904ZM39.7866 5.64037L38.9551 3.59618L38.6172 5.77552C38.2979 5.58063 38.0532 5.16667 37.9771 4.49523C37.854 3.44255 38.7808 2.08687 38.7808 2.08687C38.7808 2.08687 39.9957 3.19218 40.1187 4.24486C40.1948 4.91772 40.0526 5.37436 39.7866 5.64037ZM41.7994 14.2887C41.4921 14.2888 41.1917 14.1978 40.9361 14.0272C40.6806 13.8566 40.4814 13.614 40.3637 13.3301C40.246 13.0462 40.2152 12.7338 40.2751 12.4324C40.3351 12.131 40.483 11.8542 40.7003 11.6369C40.9176 11.4196 41.1945 11.2716 41.4959 11.2117C41.7973 11.1518 42.1096 11.1826 42.3935 11.3003C42.6774 11.4179 42.92 11.6171 43.0907 11.8727C43.2613 12.1283 43.3523 12.4287 43.3521 12.736C43.3521 13.1478 43.1886 13.5427 42.8974 13.8339C42.6062 14.1251 42.2112 14.2887 41.7994 14.2887ZM44.1609 3.8686C44.5563 2.88491 46.0144 2.13381 46.0144 2.13381C46.0144 2.13381 46.5564 3.68367 46.1631 4.66807C45.9134 5.29399 45.5699 5.62899 45.2107 5.73497L45.4518 3.54284L44.1175 5.29896C43.929 4.97391 43.9112 4.49381 44.1609 3.8686ZM45.6481 9.95209L47.9363 6.89363L44.3998 8.33964C44.4034 7.69026 44.7982 6.95765 45.7207 6.24353C47.1731 5.11901 50.0139 5.28261 50.0139 5.28261C50.0139 5.28261 49.4605 8.07363 48.0081 9.19459C47.0856 9.91226 46.2776 10.1107 45.6481 9.95209ZM44.8565 20.6802C44.8565 20.6802 43.6644 19.5507 43.5606 18.4959C43.4958 17.8259 43.648 17.3699 43.9162 17.1117L44.7064 19.1744L45.0884 17.0022C45.4035 17.2042 45.6396 17.6224 45.7043 18.2924C45.811 19.3444 44.8565 20.6802 44.8565 20.6802ZM47.5984 17.9724C46.8381 17.5179 46.4739 17.0015 46.412 16.5129L49.2087 17.2832L47.2065 15.1842C47.6667 15.0071 48.2941 15.0832 49.0558 15.5398C50.2522 16.2554 50.9222 18.3081 50.9229 18.3088C50.9236 18.3095 48.7948 18.6879 47.5984 17.9724ZM51.0204 15.8507C50.4812 15.7596 50.1554 15.5441 50.0103 15.2767L51.7921 15.0924L50.169 14.3364C50.3937 14.1315 50.7721 14.0341 51.3113 14.123C52.1605 14.2652 53.0069 15.2966 53.0069 15.2966C53.0069 15.2966 51.8696 15.9929 51.0204 15.8507Z" fill="#1A8D8D"/>
</svg>
