<svg width="51" height="51" viewBox="0 0 51 51" fill="none" xmlns="http://www.w3.org/2000/svg">
<g clip-path="url(#clip0_1:208)">
<path d="M30.2457 6.36719H5.83689C2.61068 6.36719 0 8.97787 0 12.2041V38.7354C0 41.9616 2.61068 44.5723 5.83689 44.5723H21.501L21.9679 41.9616C22.1823 40.773 22.7321 39.7118 23.5832 38.8415L26.3424 36.0823H7.9594C7.08917 36.0823 6.36752 35.3606 6.36752 34.4904C6.36752 33.6202 7.08917 32.8985 7.9594 32.8985H28.1232C28.5053 32.8985 28.8661 33.0471 29.142 33.2806L36.0826 26.3612V12.2041C36.0826 8.97787 33.4719 6.36719 30.2457 6.36719ZM28.1232 29.1841H7.9594C7.08917 29.1841 6.36752 28.4625 6.36752 27.5923C6.36752 26.722 7.08917 26.0004 7.9594 26.0004H28.1232C28.9934 26.0004 29.7151 26.722 29.7151 27.5923C29.7151 28.4625 28.9934 29.1841 28.1232 29.1841ZM28.1232 22.286H7.9594C7.08917 22.286 6.36752 21.5643 6.36752 20.6941C6.36752 19.8239 7.08917 19.1022 7.9594 19.1022H28.1232C28.9934 19.1022 29.7151 19.8239 29.7151 20.6941C29.7151 21.5643 28.9934 22.286 28.1232 22.286Z" fill="#2196F3"/>
<path d="M26.0009 4.24501H23.6662C22.9657 1.80413 20.7159 0 18.0415 0C15.3672 0 13.1173 1.80413 12.4169 4.24501H10.0821C9.21189 4.24501 8.49023 4.96667 8.49023 5.83689V10.0819C8.49023 12.1195 10.167 13.7963 12.2046 13.7963H23.8784C25.916 13.7963 27.5928 12.1195 27.5928 10.0819V5.83689C27.5928 4.96667 26.8711 4.24501 26.0009 4.24501Z" fill="#1976D2"/>
<path d="M29.7148 20.6944C29.7148 21.5646 28.9931 22.2863 28.1229 22.2863H7.95907C7.08884 22.2863 6.36719 21.5646 6.36719 20.6944C6.36719 19.8242 7.08884 19.1025 7.95907 19.1025H28.1229C28.9931 19.1025 29.7148 19.8242 29.7148 20.6944Z" fill="white"/>
<path d="M29.7148 27.5929C29.7148 28.4631 28.9931 29.1847 28.1229 29.1847H7.95907C7.08884 29.1847 6.36719 28.4631 6.36719 27.5929C6.36719 26.7226 7.08884 26.001 7.95907 26.001H28.1229C28.9931 26.001 29.7148 26.7226 29.7148 27.5929Z" fill="white"/>
<path d="M29.1417 33.2805L26.34 36.0822H7.95907C7.08884 36.0822 6.36719 35.3605 6.36719 34.4903C6.36719 33.6201 7.08884 32.8984 7.95907 32.8984H28.1229C28.5049 32.8984 28.8657 33.047 29.1417 33.2805Z" fill="white"/>
<path d="M8.49003 6.36719H5.83689C2.61068 6.36719 0 8.97787 0 12.2041V38.7354C0 41.9616 2.61068 44.5723 5.83689 44.5723H18.0413V36.0823H7.9594C7.08917 36.0823 6.36752 35.3606 6.36752 34.4904C6.36752 33.6202 7.08917 32.8985 7.9594 32.8985H18.0413V29.1841H7.9594C7.08917 29.1841 6.36752 28.4625 6.36752 27.5923C6.36752 26.722 7.08917 26.0004 7.9594 26.0004H18.0413V22.286H7.9594C7.08917 22.286 6.36752 21.5643 6.36752 20.6941C6.36752 19.8239 7.08917 19.1022 7.9594 19.1022H18.0413V13.796H12.2044C10.1668 13.796 8.49003 12.1192 8.49003 10.0816V6.36719Z" fill="#1D83D4"/>
<path d="M18.0415 0C15.3672 0 13.1173 1.80413 12.4169 4.24501H10.0821C9.21189 4.24501 8.49023 4.96667 8.49023 5.83689V6.36752V10.0819C8.49023 12.1195 10.167 13.7963 12.2046 13.7963H18.0415V0Z" fill="#1667B7"/>
<path d="M18.041 19.1025H7.95907C7.08884 19.1025 6.36719 19.8242 6.36719 20.6944C6.36719 21.5646 7.08884 22.2863 7.95907 22.2863H18.041V19.1025Z" fill="#DEDEDE"/>
<path d="M18.041 26.001H7.95907C7.08884 26.001 6.36719 26.7226 6.36719 27.5929C6.36719 28.4631 7.08884 29.1847 7.95907 29.1847H18.041V26.001Z" fill="#DEDEDE"/>
<path d="M18.041 32.8984H7.95907C7.08884 32.8984 6.36719 33.6201 6.36719 34.4903C6.36719 35.3605 7.08884 36.0822 7.95907 36.0822H18.041V32.8984Z" fill="#DEDEDE"/>
<path d="M26.5891 50.9401C26.171 50.9401 25.7634 50.7745 25.4642 50.4731C25.097 50.1059 24.9314 49.5838 25.0227 49.0701L26.1476 42.692C26.2028 42.3715 26.3599 42.0743 26.5891 41.8451L42.3487 26.0855C44.2844 24.1476 46.1862 24.6698 47.2262 25.7098L49.8518 28.3353C51.3015 29.785 51.3015 32.1389 49.8518 33.5886L34.0922 49.3482C33.8629 49.5795 33.5658 49.7345 33.2432 49.7918L26.865 50.9146L26.5891 50.9401ZM32.9672 48.2232H32.9885H32.9672Z" fill="#FFC107"/>
<path d="M45.0613 24.7803C44.2293 24.7803 43.2932 25.1411 42.3487 26.0856L26.5891 41.8452C26.3599 42.0745 26.2028 42.3716 26.1476 42.6921L25.0227 49.0702C24.9314 49.5839 25.097 50.106 25.4642 50.4732C25.4812 50.4902 25.496 50.5051 25.513 50.5199L48.7735 27.2572L47.2241 25.7078C46.6935 25.1772 45.9336 24.7803 45.0613 24.7803Z" fill="#DEA806"/>
</g>
<defs>
<clipPath id="clip0_1:208">
<rect width="50.9402" height="50.9402" fill="white"/>
</clipPath>
</defs>
</svg>
