<svg width="58" height="36" viewBox="0 0 58 36" fill="none" xmlns="http://www.w3.org/2000/svg">
<g clip-path="url(#clip0_227:1431)">
<path d="M4.37798 29.994C4.67512 30.0397 4.96084 30.1083 5.23512 30.1997C5.52084 30.2797 5.77227 30.3769 5.98941 30.4911L5.86941 31.1426H0.160837L0.280837 30.4911C0.783694 30.2511 1.29227 30.0854 1.80655 29.994L3.86369 20.2911C3.61227 20.2454 3.37798 20.1826 3.16084 20.1026C2.94369 20.0111 2.74369 19.9083 2.56084 19.794L2.69798 19.1426H4.85798C5.31512 19.1426 5.84084 19.1197 6.43512 19.074C7.04084 19.0283 7.58941 19.0054 8.08084 19.0054C8.67512 19.0054 9.2237 19.0569 9.72655 19.1597C10.2408 19.2626 10.6751 19.4283 11.0294 19.6569C11.3951 19.874 11.6808 20.1654 11.8866 20.5311C12.0923 20.8969 12.1951 21.3426 12.1951 21.8683C12.1951 22.5426 12.0694 23.1711 11.818 23.754C11.5666 24.3254 11.2008 24.8226 10.7208 25.2454C10.2408 25.6683 9.65227 26.0054 8.95512 26.2569C8.25798 26.4969 7.46941 26.6169 6.58941 26.6169C6.53227 26.6169 6.43512 26.6169 6.29798 26.6169C6.17227 26.6169 6.02941 26.6169 5.86941 26.6169C5.72084 26.6054 5.57227 26.5997 5.42369 26.5997C5.28655 26.5883 5.17798 26.5769 5.09798 26.5654L4.37798 29.994ZM7.44655 20.1197C7.21798 20.1197 7.02369 20.1311 6.86369 20.154C6.71512 20.1769 6.57798 20.1997 6.45227 20.2226L5.33798 25.434C5.44084 25.4569 5.59512 25.474 5.80084 25.4854C6.00655 25.4969 6.17227 25.5026 6.29798 25.5026C6.78941 25.5026 7.22369 25.4169 7.60084 25.2454C7.97798 25.0626 8.29227 24.8111 8.5437 24.4911C8.80655 24.1597 9.00655 23.7769 9.14369 23.3426C9.28084 22.8969 9.34941 22.4054 9.34941 21.8683C9.34941 21.6054 9.31512 21.3654 9.24655 21.1483C9.18941 20.9311 9.08655 20.7483 8.93798 20.5997C8.80084 20.4397 8.60655 20.3197 8.35512 20.2397C8.11512 20.1597 7.81227 20.1197 7.44655 20.1197ZM14.8718 29.9769C15.089 29.9769 15.3118 29.8797 15.5404 29.6854C15.7804 29.4911 16.0032 29.2511 16.209 28.9654C16.4261 28.6683 16.6204 28.3483 16.7918 28.0054C16.9747 27.6511 17.129 27.3254 17.2547 27.0283L17.889 23.634C17.7518 23.5426 17.6204 23.4797 17.4947 23.4454C17.3804 23.3997 17.2261 23.3769 17.0318 23.3769C16.5747 23.3769 16.1632 23.5311 15.7975 23.8397C15.4318 24.1369 15.1232 24.5311 14.8718 25.0226C14.6204 25.5026 14.4261 26.0454 14.289 26.6511C14.1632 27.2569 14.1004 27.8626 14.1004 28.4683C14.1004 28.994 14.1632 29.3769 14.289 29.6169C14.4147 29.8569 14.609 29.9769 14.8718 29.9769ZM16.9975 28.4169C16.849 28.7826 16.6604 29.1426 16.4318 29.4969C16.2147 29.8397 15.9632 30.1483 15.6775 30.4226C15.3918 30.6969 15.0775 30.9197 14.7347 31.0911C14.3918 31.2626 14.0204 31.3483 13.6204 31.3483C13.0261 31.3483 12.5518 31.1311 12.1975 30.6969C11.8432 30.2626 11.6661 29.6169 11.6661 28.7597C11.6661 27.8683 11.7861 27.0397 12.0261 26.274C12.2775 25.4969 12.6261 24.8226 13.0718 24.2511C13.529 23.6683 14.0775 23.2169 14.7175 22.8969C15.3575 22.5654 16.0718 22.3997 16.8604 22.3997C17.1575 22.3997 17.409 22.434 17.6147 22.5026C17.8318 22.5711 18.0604 22.6569 18.3004 22.7597C18.5975 22.6454 18.9175 22.5597 19.2604 22.5026C19.6032 22.4454 20.0147 22.4169 20.4947 22.4169L19.0547 29.9597H20.2547V30.5426C20.1404 30.634 19.9861 30.7254 19.7918 30.8169C19.609 30.9083 19.4032 30.9883 19.1747 31.0569C18.9575 31.1254 18.729 31.1826 18.489 31.2283C18.2604 31.274 18.0432 31.2969 17.8375 31.2969C17.4375 31.2969 17.1518 31.2111 16.9804 31.0397C16.809 30.8683 16.7232 30.6911 16.7232 30.5083C16.7232 30.3026 16.7518 30.034 16.809 29.7026C16.8661 29.3597 16.9518 28.9311 17.0661 28.4169H16.9975ZM23.4686 19.674L22.3028 19.4511V18.8683C22.4628 18.7997 22.68 18.7311 22.9543 18.6626C23.2286 18.594 23.5257 18.5311 23.8457 18.474C24.1657 18.4054 24.4914 18.354 24.8228 18.3197C25.1657 18.274 25.48 18.2511 25.7657 18.2511L26.1086 18.4397L23.8628 29.9597H25.08V30.5426C24.9657 30.634 24.8114 30.7254 24.6171 30.8169C24.4228 30.9083 24.2057 30.9883 23.9657 31.0569C23.7371 31.1254 23.4971 31.1826 23.2457 31.2283C22.9943 31.274 22.7543 31.2969 22.5257 31.2969C22.1371 31.2969 21.8514 31.2169 21.6686 31.0569C21.4971 30.8854 21.4114 30.7026 21.4114 30.5083C21.4114 30.2797 21.4286 30.0569 21.4628 29.8397C21.4971 29.6226 21.5428 29.3826 21.6 29.1197L23.4686 19.674ZM37.0256 25.9997C37.0828 25.7369 37.1456 25.4569 37.2142 25.1597C37.2828 24.8511 37.317 24.6111 37.317 24.4397C37.317 24.2226 37.277 24.0511 37.197 23.9254C37.1285 23.7997 36.997 23.7369 36.8028 23.7369C36.6085 23.7369 36.4085 23.8111 36.2028 23.9597C35.997 24.0969 35.797 24.2854 35.6028 24.5254C35.4085 24.754 35.2199 25.0169 35.037 25.314C34.8656 25.6111 34.7113 25.914 34.5742 26.2226L33.4599 31.1426H31.1628L32.2085 26.3254C32.2885 25.9711 32.357 25.6283 32.4142 25.2969C32.4713 24.9654 32.4999 24.6569 32.4999 24.3711C32.4999 23.9483 32.3399 23.7369 32.0199 23.7369C31.8599 23.7369 31.677 23.8111 31.4713 23.9597C31.2656 24.1083 31.0599 24.3026 30.8542 24.5426C30.6485 24.7711 30.4542 25.034 30.2713 25.3311C30.0885 25.6283 29.9456 25.9311 29.8428 26.2397L28.8485 31.1426H26.4485L27.9742 23.7883L26.997 23.5654V22.9826C27.1799 22.8911 27.4028 22.8054 27.6656 22.7254C27.9399 22.6454 28.2256 22.5826 28.5228 22.5369C28.8199 22.4797 29.1228 22.4397 29.4313 22.4169C29.7399 22.3826 30.0256 22.3654 30.2885 22.3654L30.6485 22.5711L29.9799 25.074H30.0485C30.2199 24.7654 30.4256 24.4511 30.6656 24.1311C30.917 23.7997 31.197 23.5083 31.5056 23.2569C31.8142 22.994 32.1456 22.7826 32.4999 22.6226C32.8542 22.4511 33.2142 22.3654 33.5799 22.3654C33.717 22.3654 33.8599 22.3883 34.0085 22.434C34.157 22.4797 34.2942 22.5654 34.4199 22.6911C34.557 22.8054 34.6656 22.9654 34.7456 23.1711C34.8256 23.3769 34.8656 23.6397 34.8656 23.9597C34.8656 24.1197 34.8485 24.3026 34.8142 24.5083C34.7913 24.714 34.757 24.9026 34.7113 25.074C34.9056 24.7197 35.1342 24.3769 35.397 24.0454C35.6599 23.714 35.9399 23.4283 36.237 23.1883C36.5456 22.9369 36.8656 22.7369 37.197 22.5883C37.5399 22.4397 37.8942 22.3654 38.2599 22.3654C38.6942 22.3654 39.0485 22.5026 39.3228 22.7769C39.597 23.0511 39.7342 23.4283 39.7342 23.9083C39.7342 24.274 39.6999 24.6226 39.6313 24.954C39.5628 25.2854 39.4885 25.634 39.4085 25.9997L38.4313 29.9597H39.6313V30.5426C39.517 30.634 39.357 30.7254 39.1513 30.8169C38.957 30.9083 38.7456 30.9883 38.517 31.0569C38.2885 31.1254 38.0542 31.1826 37.8142 31.2283C37.5742 31.274 37.3513 31.2969 37.1456 31.2969C36.7342 31.2969 36.4485 31.2169 36.2885 31.0569C36.1285 30.8854 36.0485 30.6969 36.0485 30.4911C36.0485 30.1597 36.1285 29.7026 36.2885 29.1197L37.0256 25.9997ZM46.0879 22.5711C46.305 22.5711 46.5679 22.5711 46.8765 22.5711C47.1965 22.5597 47.5222 22.5483 47.8536 22.5369C48.1965 22.514 48.5222 22.4911 48.8308 22.4683C49.1508 22.434 49.4136 22.3997 49.6193 22.3654L49.9279 22.5711L48.505 29.9597H49.705V30.5426C49.5565 30.6454 49.385 30.7426 49.1908 30.834C48.9965 30.9254 48.785 31.0054 48.5565 31.074C48.3393 31.1426 48.1165 31.194 47.8879 31.2283C47.6593 31.274 47.4422 31.2969 47.2365 31.2969C46.8022 31.2969 46.4993 31.2169 46.3279 31.0569C46.1565 30.8854 46.0708 30.7026 46.0708 30.5083C46.0708 30.2797 46.0879 30.0569 46.1222 29.8397C46.1565 29.6226 46.2022 29.3826 46.2593 29.1197L47.3222 23.7369L44.7508 23.6511L43.6879 30.4054C43.5736 31.2169 43.3393 31.8911 42.985 32.4283C42.6308 32.9654 42.2365 33.394 41.8022 33.714C41.3793 34.0454 40.9508 34.2911 40.5165 34.4511C40.0822 34.6112 39.7279 34.7197 39.4536 34.7769L39.265 34.194C39.4022 34.1254 39.5736 34.0111 39.7793 33.8511C39.985 33.7026 40.1907 33.4911 40.3965 33.2169C40.6022 32.9426 40.7907 32.5997 40.9622 32.1883C41.145 31.7883 41.2822 31.3026 41.3736 30.7311L42.4536 23.6511H41.2365V22.9826C41.465 22.8569 41.705 22.7483 41.9565 22.6569C42.2193 22.554 42.465 22.474 42.6936 22.4169L42.8136 21.8169C42.9622 21.1083 43.1736 20.5254 43.4479 20.0683C43.7222 19.5997 44.0479 19.234 44.425 18.9711C44.8136 18.6969 45.2479 18.5083 45.7279 18.4054C46.2193 18.3026 46.7508 18.2511 47.3222 18.2511C47.9508 18.2511 48.5336 18.3369 49.0708 18.5083C49.6079 18.6683 50.0136 18.8454 50.2879 19.0397C50.2765 19.1997 50.2365 19.3826 50.1679 19.5883C50.0993 19.7826 49.9965 19.9711 49.8593 20.154C49.7336 20.3369 49.5793 20.5026 49.3965 20.6511C49.2136 20.7883 49.0022 20.8911 48.7622 20.9597L47.305 19.1597C47.1108 19.1711 46.905 19.2111 46.6879 19.2797C46.4822 19.3483 46.2822 19.474 46.0879 19.6569C45.8936 19.8397 45.7108 20.0969 45.5393 20.4283C45.3679 20.7483 45.2308 21.1769 45.1279 21.714L44.9736 22.5711H46.0879ZM51.1986 22.9826C51.4158 22.8454 51.6558 22.7311 51.9186 22.6397C52.1815 22.5369 52.4386 22.4569 52.69 22.3997L52.9643 21.0969C53.0443 21.0283 53.17 20.9654 53.3415 20.9083C53.5129 20.8397 53.7015 20.7826 53.9072 20.7369C54.1129 20.6797 54.3186 20.6283 54.5243 20.5826C54.7415 20.5369 54.9358 20.5026 55.1072 20.4797L55.4672 20.6854L55.0558 22.5711H57.0615C57.0843 22.7083 57.0729 22.8911 57.0272 23.1197C56.9929 23.3369 56.93 23.514 56.8386 23.6511H54.8329L53.8386 28.0911C53.7929 28.3083 53.7586 28.5026 53.7358 28.674C53.7129 28.834 53.7015 28.9826 53.7015 29.1197C53.7015 29.4169 53.7758 29.634 53.9243 29.7711C54.0729 29.9083 54.2729 29.9769 54.5243 29.9769C54.81 29.9769 55.0786 29.9426 55.33 29.874C55.5815 29.8054 55.8215 29.7083 56.05 29.5826L56.2729 30.0283C56.1358 30.1769 55.9529 30.3311 55.7243 30.4911C55.4958 30.6397 55.2386 30.7826 54.9529 30.9197C54.6672 31.0454 54.3586 31.1483 54.0272 31.2283C53.6958 31.3083 53.3586 31.3483 53.0158 31.3483C52.4215 31.3483 51.9758 31.2111 51.6786 30.9369C51.3815 30.6626 51.2329 30.2854 51.2329 29.8054C51.2329 29.5426 51.2558 29.2626 51.3015 28.9654C51.3472 28.6683 51.3929 28.4169 51.4386 28.2111L52.4329 23.6511H51.1986V22.9826Z" fill="white"/>
<path d="M23.4288 0C18.695 0 14.8574 3.83761 14.8574 8.57142C14.8573 10.2631 15.3576 11.917 16.2954 13.3249C17.2332 14.7329 18.5666 15.8319 20.1277 16.4836C21.065 17.7773 22.2042 18.4979 22.2042 18.4979C22.2042 18.4979 18.8519 14.8294 20.0095 11.3852C20.3045 10.5061 20.8475 9.80009 21.3471 9.03476C21.8116 8.32268 21.9344 7.44436 21.9904 6.59612C22.0482 5.72837 22.0181 4.76958 21.4442 4.11683C22.179 4.65049 22.5526 5.57677 22.607 6.48353C22.6615 7.3903 22.4351 8.28935 22.1721 9.15872C23.8011 8.48728 25.7281 8.58483 27.2807 9.41681C26.7117 9.19652 23.6987 8.67912 22.301 10.6727C21.5304 11.7702 21.0999 13.0702 21.063 14.4107C21.0483 15.0814 21.156 15.7203 21.3365 16.3409C21.3942 16.5397 21.4584 16.7368 21.5308 16.9323C22.1536 17.0732 22.7902 17.1442 23.4288 17.1441C28.1626 17.1441 32.0003 13.3064 32.0003 8.57264C32.0003 3.83883 28.1626 0 23.4288 0ZM29.6803 4.69195C29.6803 4.69195 29.3767 5.39102 28.9329 5.60278C28.6508 5.73772 28.4276 5.74381 28.272 5.66618L29.0442 4.99515L28.0362 5.17317C28.0744 5.00369 28.2191 4.8342 28.5012 4.69967C28.9459 4.48751 29.6799 4.69195 29.6803 4.69195ZM26.9754 6.53922C27.1213 6.31608 27.4225 6.15107 27.8985 6.11001C28.6504 6.04539 29.5941 6.73471 29.5941 6.73471C29.5941 6.73471 28.7812 7.57483 28.0297 7.63945C27.5522 7.68009 27.2291 7.56873 27.0474 7.37404L28.5187 6.82698L26.9754 6.53922ZM23.1488 3.36045C23.3252 2.66747 24.236 2.03708 24.236 2.03708C24.236 2.03708 24.7351 3.02595 24.5587 3.71893C24.447 4.1591 24.2462 4.41394 24.0153 4.51596L23.984 3.02839L23.2455 4.32005C23.0915 4.12008 23.037 3.80265 23.1488 3.36045ZM21.0406 6.59612C20.4691 6.73756 19.6587 6.32136 19.6587 6.32136C19.6587 6.32136 20.1826 5.57514 20.7541 5.4337C21.117 5.34388 21.3796 5.39062 21.5434 5.51864L20.4752 6.11936L21.6994 6.1531C21.6145 6.34291 21.4035 6.5063 21.0406 6.59612ZM22.1555 4.36517L21.0345 3.78924L21.6994 4.8594C21.4885 4.89395 21.2284 4.80575 20.9455 4.54481C20.4984 4.13431 20.3976 3.20356 20.3976 3.20356C20.3976 3.20356 21.3353 3.23039 21.7795 3.64089C22.0636 3.89979 22.1725 4.15179 22.1555 4.36517V4.36517ZM22.7355 3.22307L22.2603 2.05496L22.0673 3.30029C21.8848 3.18893 21.745 2.95238 21.7015 2.5687C21.6312 1.96717 22.1607 1.1925 22.1607 1.1925C22.1607 1.1925 22.8549 1.8241 22.9253 2.42563C22.9687 2.81013 22.8875 3.07106 22.7355 3.22307V3.22307ZM23.8857 8.16498C23.7101 8.16506 23.5384 8.11306 23.3924 8.01555C23.2463 7.91804 23.1325 7.77941 23.0653 7.61719C22.998 7.45498 22.9804 7.27646 23.0146 7.10424C23.0489 6.93201 23.1334 6.7738 23.2576 6.64964C23.3818 6.52547 23.54 6.44092 23.7122 6.40668C23.8844 6.37244 24.0629 6.39006 24.2252 6.45729C24.3874 6.52453 24.526 6.63837 24.6235 6.7844C24.721 6.93044 24.773 7.10212 24.7729 7.27772C24.7729 7.51303 24.6795 7.73871 24.5131 7.9051C24.3467 8.0715 24.121 8.16498 23.8857 8.16498V8.16498ZM25.2351 2.21063C25.461 1.64852 26.2942 1.21932 26.2942 1.21932C26.2942 1.21932 26.604 2.10495 26.3792 2.66747C26.2365 3.02513 26.0402 3.21657 25.835 3.27713L25.9727 2.02448L25.2103 3.02798C25.1026 2.84224 25.0924 2.56789 25.2351 2.21063V2.21063ZM26.0849 5.68691L27.3924 3.93922L25.3716 4.76551C25.3737 4.39443 25.5992 3.9758 26.1264 3.56773C26.9563 2.92515 28.5797 3.01863 28.5797 3.01863C28.5797 3.01863 28.2634 4.6135 27.4335 5.25405C26.9063 5.66415 26.4446 5.77755 26.0849 5.68691ZM25.6326 11.8172C25.6326 11.8172 24.9514 11.1718 24.892 10.5691C24.855 10.1862 24.942 9.92568 25.0952 9.77814L25.5468 10.9568L25.7651 9.71555C25.9451 9.83098 26.08 10.07 26.117 10.4528C26.178 11.054 25.6326 11.8172 25.6326 11.8172ZM27.1994 10.2699C26.7649 10.0102 26.5568 9.71514 26.5214 9.43592L28.1196 9.87609L26.9754 8.67669C27.2384 8.57548 27.5969 8.61897 28.0322 8.87991C28.7158 9.28878 29.0987 10.4618 29.0991 10.4622C29.0995 10.4626 27.883 10.6788 27.1994 10.2699ZM29.1548 9.05752C28.8467 9.0055 28.6605 8.88234 28.5776 8.72952L29.5958 8.62425L28.6683 8.19221C28.7967 8.07515 29.0129 8.01947 29.321 8.07028C29.8063 8.15156 30.29 8.7409 30.29 8.7409C30.29 8.7409 29.6401 9.13881 29.1548 9.05752Z" fill="white"/>
</g>
<defs>
<clipPath id="clip0_227:1431">
<rect width="57.1429" height="36" fill="white"/>
</clipPath>
</defs>
</svg>
